# xmcd
#
# Track frame offsets: 
#        150
#        17723
#        52860
#        71981
#        99151
#        119301
#        141004
#        164880
#        186450
#        215145
#        240197
#        254983
#        277906
#        297549
#        321280
#
# Disc length: 4603 seconds
#
# Revision: 1
# Processed by: cddbd v1.5.2PL0 Copyright (c) Steve Scherf et al.
# Submitted via: ExactAudioCopy v1.0b3
#
DISCID=ef11f90f
DTITLE=松山千春 - 35th Anniversary 松山千春の世界 Chiharu Matsuyama Selection (通常
DTITLE=盤) Disc 3 COCP-37192-5
DYEAR=2012
DGENRE=JPop
TTITLE0=SWAY
TTITLE1=挫折
TTITLE2=時計（Album Version）
TTITLE3=淡々と…
TTITLE4=ジュテーム
TTITLE5=君を忘れない
TTITLE6=生命
TTITLE7=ひとりの部屋
TTITLE8=ひまわり
TTITLE9=雪化粧
TTITLE10=ガリレオ
TTITLE11=僕なら
TTITLE12=LaLaLa
TTITLE13=愛しているから
TTITLE14=egoist:エゴイスト 自己中心主義者
EXTD=
EXTT0=
EXTT1=
EXTT2=
EXTT3=
EXTT4=
EXTT5=
EXTT6=
EXTT7=
EXTT8=
EXTT9=
EXTT10=
EXTT11=
EXTT12=
EXTT13=
EXTT14=
PLAYORDER=
